<svg width="97px" height="31px" xmlns="http://www.w3.org/2000/svg" style="animation-delay: 0s; animation-direction: normal; animation-duration: 0s; animation-fill-mode: none; animation-iteration-count: 1; animation-name: none; animation-play-state: running; animation-timing-function: ease; background-attachment: scroll; background-blend-mode: normal; background-clip: border-box; background-color: rgba(0, 0, 0, 0); background-image: none; background-origin: padding-box; background-position: 0% 0%; background-repeat: no-repeat; background-size: auto; border-bottom-color: rgb(0, 0, 238); border-bottom-left-radius: 0px; border-bottom-right-radius: 0px; border-bottom-style: none; border-bottom-width: 0px; border-collapse: separate; border-image-outset: 0px; border-image-repeat: stretch; border-image-slice: 100%; border-image-source: none; border-image-width: 1; border-left-color: rgb(0, 0, 238); border-left-style: none; border-left-width: 0px; border-right-color: rgb(0, 0, 238); border-right-style: none; border-right-width: 0px; border-top-color: rgb(0, 0, 238); border-top-left-radius: 0px; border-top-right-radius: 0px; border-top-style: none; border-top-width: 0px; bottom: auto; box-shadow: none; box-sizing: border-box; break-after: auto; break-before: auto; break-inside: auto; caption-side: top; clear: none; clip: auto; color: rgb(0, 0, 238); content: ; cursor: auto; direction: ltr; display: inline; empty-cells: show; float: none; font-family: Poppins, sans-serif; font-kerning: auto; font-size: 16px; font-stretch: normal; font-style: normal; font-variant: normal; font-variant-ligatures: normal; font-variant-caps: normal; font-variant-numeric: normal; font-weight: normal; height: 31px; image-rendering: auto; isolation: auto; justify-items: normal; justify-self: normal; left: auto; letter-spacing: normal; line-height: normal; list-style-image: none; list-style-position: outside; list-style-type: disc; margin-bottom: 0px; margin-left: 0px; margin-right: 0px; margin-top: 0px; max-height: none; max-width: none; min-height: 0px; min-width: 0px; mix-blend-mode: normal; object-fit: fill; object-position: 50% 50%; offset-distance: 0px; offset-path: none; offset-rotate: auto 0deg; offset-rotation: auto 0deg; opacity: 1; orphans: 2; outline-color: rgb(0, 0, 238); outline-offset: 0px; outline-style: none; outline-width: 0px; overflow-anchor: auto; overflow-wrap: normal; overflow-x: hidden; overflow-y: hidden; padding-bottom: 0px; padding-left: 0px; padding-right: 0px; padding-top: 0px; pointer-events: auto; position: static; resize: none; right: auto; speak: normal; table-layout: auto; tab-size: 8; text-align: start; text-align-last: auto; text-decoration: none solid rgb(0, 0, 238); text-decoration-line: none; text-decoration-style: solid; text-decoration-color: rgb(0, 0, 238); text-decoration-skip: objects; text-underline-position: auto; text-indent: 0px; text-rendering: optimizeLegibility; text-shadow: none; text-size-adjust: 100%; text-overflow: clip; text-transform: none; top: auto; touch-action: auto; transition-delay: 0s; transition-duration: 0s; transition-property: all; transition-timing-function: ease; unicode-bidi: normal; vertical-align: middle; visibility: visible; white-space: normal; widows: 2; width: 97px; will-change: auto; word-break: normal; word-spacing: 0px; word-wrap: normal; z-index: auto; zoom: 1; -webkit-appearance: none; backface-visibility: visible; -webkit-background-clip: border-box; -webkit-background-origin: padding-box; -webkit-border-horizontal-spacing: 0px; -webkit-border-image: none; -webkit-border-vertical-spacing: 0px; -webkit-box-align: stretch; -webkit-box-decoration-break: slice; -webkit-box-direction: normal; -webkit-box-flex: 0; -webkit-box-flex-group: 1; -webkit-box-lines: single; -webkit-box-ordinal-group: 1; -webkit-box-orient: horizontal; -webkit-box-pack: start; -webkit-box-reflect: none; column-count: auto; column-gap: normal; column-rule-color: rgb(0, 0, 238); column-rule-style: none; column-rule-width: 0px; column-span: none; column-width: auto; align-content: normal; align-items: normal; align-self: normal; flex-basis: auto; flex-grow: 0; flex-shrink: 1; flex-direction: row; flex-wrap: nowrap; justify-content: normal; -webkit-font-smoothing: antialiased; grid-auto-columns: auto; grid-auto-flow: row; grid-auto-rows: auto; grid-column-end: auto; grid-column-start: auto; grid-template-areas: none; grid-template-columns: none; grid-template-rows: none; grid-row-end: auto; grid-row-start: auto; grid-column-gap: 0px; grid-row-gap: 0px; -webkit-highlight: none; hyphens: manual; -webkit-hyphenate-character: auto; -webkit-line-break: auto; -webkit-line-clamp: none; -webkit-locale: &quot;en&quot;; -webkit-margin-before-collapse: collapse; -webkit-margin-after-collapse: collapse; -webkit-mask-box-image: none; -webkit-mask-box-image-outset: 0px; -webkit-mask-box-image-repeat: stretch; -webkit-mask-box-image-slice: 0 fill; -webkit-mask-box-image-source: none; -webkit-mask-box-image-width: auto; -webkit-mask-clip: border-box; -webkit-mask-composite: source-over; -webkit-mask-image: none; -webkit-mask-origin: border-box; -webkit-mask-position: 0% 0%; -webkit-mask-repeat: repeat; -webkit-mask-size: auto; order: 0; perspective: none; perspective-origin: 48.5px 15.5px; -webkit-print-color-adjust: economy; -webkit-rtl-ordering: logical; shape-outside: none; shape-image-threshold: 0; shape-margin: 0px; -webkit-tap-highlight-color: rgba(0, 0, 0, 0.4); -webkit-text-combine: none; -webkit-text-decorations-in-effect: none; -webkit-text-emphasis-color: rgb(0, 0, 238); -webkit-text-emphasis-position: over; -webkit-text-emphasis-style: none; -webkit-text-fill-color: rgb(0, 0, 238); -webkit-text-orientation: vertical-right; -webkit-text-security: none; -webkit-text-stroke-color: rgb(0, 0, 238); -webkit-text-stroke-width: 0px; transform: none; transform-origin: 48.5px 15.5px; transform-style: flat; -webkit-user-drag: auto; -webkit-user-modify: read-only; user-select: text; -webkit-writing-mode: horizontal-tb; -webkit-app-region: no-drag; buffered-rendering: auto; clip-path: none; clip-rule: nonzero; mask: none; filter: none; flood-color: rgb(0, 0, 0); flood-opacity: 1; lighting-color: rgb(255, 255, 255); stop-color: rgb(0, 0, 0); stop-opacity: 1; color-interpolation: sRGB; color-interpolation-filters: linearRGB; color-rendering: auto; fill: rgb(0, 0, 238); fill-opacity: 1; fill-rule: nonzero; marker-end: none; marker-mid: none; marker-start: none; mask-type: luminance; shape-rendering: auto; stroke: none; stroke-dasharray: none; stroke-dashoffset: 0px; stroke-linecap: butt; stroke-linejoin: miter; stroke-miterlimit: 4; stroke-opacity: 1; stroke-width: 1px; alignment-baseline: auto; baseline-shift: 0px; dominant-baseline: auto; text-anchor: start; writing-mode: horizontal-tb; vector-effect: none; paint-order: fill stroke markers; d: none; cx: 0px; cy: 0px; x: 0px; y: 0px; r: 0px; rx: auto; ry: auto; caret-color: rgb(0, 0, 238);" version="1.1" xmlns:xlink="http://www.w3.org/1999/xlink"><style type="text/css">.kMCtDv .typo { fill: rgb(28, 29, 47); }
.kMCtDv .typo { fill: rgb(28, 29, 47); }</style><svg xmlns="http://www.w3.org/2000/svg" viewBox="0 0 97 31" version="1.1" class="kMCtDv" data-reactid="6"><g class="typo" stroke="none" fill="#1C1D2F" fill-rule="evenodd" data-reactid="7"><path d="M7.85758476,8.06306808 C7.39342364,7.76443593 6.69718195,7.59852918 5.93463153,7.59852918 C4.21060449,7.59852918 2.88442985,8.49442563 1.9561076,9.82167963 L1.82349014,8.46124428 C1.79033577,8.16261213 1.62456394,7.96352403 1.32617464,7.96352403 L0.497315491,7.96352403 C0.198926197,7.96352403 0,8.16261213 0,8.46124428 L0,23.7246653 C0,24.0232975 0.198926197,24.2223856 0.497315491,24.2223856 L1.49194647,24.2223856 C1.79033577,24.2223856 1.98926197,24.0232975 1.98926197,23.7246653 L1.98926197,13.0734519 C1.98926197,10.9498455 3.68013464,9.42350343 5.6693966,9.42350343 C6.36563829,9.42350343 6.66402758,9.52304748 6.96241688,9.58941018 C7.22765181,9.65577288 7.39342364,9.62259153 7.5260411,9.39032208 L7.9238935,8.56078833 C8.05651096,8.29533753 8.02335659,8.16261213 7.85758476,8.06306808 Z M23.6709895,7.96352403 C23.9693787,7.96352403 24.1683049,8.16261213 24.1683049,8.46124428 L24.1683049,23.7246653 C24.1683049,24.0232975 23.9693787,24.2223856 23.6709895,24.2223856 L22.7758216,24.2223856 C22.4774323,24.2223856 22.3116604,24.0232975 22.2785061,23.7246653 L22.1127342,21.5678776 C20.8528683,23.4260332 18.7972976,24.6205618 16.1781027,24.6205618 C11.5033371,24.6205618 8.18790049,20.8710692 8.18790049,16.1261362 C8.18790049,11.3812031 11.5033371,7.63171053 16.1781027,7.63171053 C18.830452,7.63171053 20.8860227,8.82623913 22.1458886,10.7175761 L22.2785061,8.46124428 C22.3116604,8.16261213 22.4774323,7.96352403 22.7758216,7.96352403 L23.6709895,7.96352403 Z M16.3107202,22.7955875 C19.3940762,22.7955875 21.7480362,20.5060744 22.3116604,17.5197529 L22.3779692,16.1261362 L22.3116604,14.6993381 C21.7480362,11.7130166 19.3940762,9.42350343 16.3107202,9.42350343 C12.7300486,9.42350343 10.1108537,12.2770995 10.1108537,16.0929548 C10.1108537,19.9419914 12.7300486,22.7955875 16.3107202,22.7955875 Z M35.6065612,7.63171053 C40.2813269,7.63171053 43.5967635,11.3812031 43.5967635,16.1261362 C43.5967635,20.8710692 40.2813269,24.6205618 35.6065612,24.6205618 C32.9873663,24.6205618 30.9317956,23.4260332 29.6719297,21.5678776 L29.5724666,22.7955875 L29.5724666,30.0291219 C29.5724666,30.327754 29.3735404,30.5268421 29.0751511,30.5268421 L28.0805201,30.5268421 C27.7821308,30.5268421 27.5832047,30.327754 27.5832047,30.0291219 L27.5832047,20.0747168 C27.5832047,20.0083541 27.5832047,19.9419914 27.616359,19.8756287 L27.616359,8.46124428 C27.616359,8.16261213 27.8152852,7.96352403 28.1136745,7.96352403 L29.0088424,7.96352403 C29.3072317,7.96352403 29.4730035,8.16261213 29.5061579,8.46124428 L29.6387753,10.7175761 C30.8986413,8.82623913 32.954212,7.63171053 35.6065612,7.63171053 Z M35.4739438,22.7955875 C39.0546153,22.7955875 41.6738102,19.9419914 41.6738102,16.0929548 C41.6738102,12.2770995 39.0546153,9.42350343 35.4739438,9.42350343 C32.3905877,9.42350343 30.0366277,11.7130166 29.4730035,14.6993381 L29.4066948,16.1261362 L29.4730035,17.5197529 C30.0366277,20.5060744 32.3905877,22.7955875 35.4739438,22.7955875 Z M47.4426699,3.88221796 C48.2383747,3.88221796 48.8351533,3.28495366 48.8351533,2.48860126 C48.8351533,1.72543021 48.2383747,1.1281659 47.4426699,1.1281659 C46.6801195,1.1281659 46.0833409,1.72543021 46.0833409,2.48860126 C46.0833409,3.28495366 46.6801195,3.88221796 47.4426699,3.88221796 Z M46.4811933,8.46124428 L46.4811933,23.7246653 C46.4811933,24.0232975 46.6801195,24.2223856 46.9785088,24.2223856 L47.9731398,24.2223856 C48.2715291,24.2223856 48.4704553,24.0232975 48.4704553,23.7246653 L48.4704553,8.46124428 C48.4704553,8.16261213 48.2715291,7.96352403 47.9731398,7.96352403 L46.9785088,7.96352403 C46.6801195,7.96352403 46.4811933,8.16261213 46.4811933,8.46124428 Z M66.8048197,0 C67.103209,0 67.3021352,0.199088101 67.3021352,0.497720252 L67.3021352,23.7246653 C67.3021352,24.0232975 67.103209,24.2223856 66.8048197,24.2223856 L65.9096519,24.2223856 C65.6112626,24.2223856 65.4454907,24.0232975 65.4123364,23.7246653 L65.2465645,21.5678776 C63.9866986,23.4260332 61.9311279,24.6205618 59.311933,24.6205618 C54.6371674,24.6205618 51.3217308,20.8710692 51.3217308,16.1261362 C51.3217308,11.3812031 54.6371674,7.63171053 59.311933,7.63171053 C61.9642823,7.63171053 64.019853,8.82623913 65.2797189,10.7175761 L65.3128733,10.2862185 L65.3128733,0.497720252 C65.3128733,0.199088101 65.5117995,0 65.8101888,0 L66.8048197,0 Z M59.4445505,22.7955875 C62.5279065,22.7955875 64.8818665,20.5060744 65.4454907,17.5197529 L65.5117995,16.1261362 L65.4454907,14.6993381 C64.8818665,11.7130166 62.5279065,9.42350343 59.4445505,9.42350343 C55.8638789,9.42350343 53.244684,12.2770995 53.244684,16.0929548 C53.244684,19.9419914 55.8638789,22.7955875 59.4445505,22.7955875 Z M71.5790485,24.6537431 C72.3415989,24.6537431 72.9383775,24.0564788 72.9383775,23.2601264 C72.9383775,22.4969554 72.3415989,21.8996911 71.5790485,21.8996911 C70.7833437,21.8996911 70.1865651,22.4969554 70.1865651,23.2601264 C70.1865651,24.0564788 70.7833437,24.6537431 71.5790485,24.6537431 Z M76.7511296,3.88221796 C77.5468344,3.88221796 78.1436129,3.28495366 78.1436129,2.48860126 C78.1436129,1.72543021 77.5468344,1.1281659 76.7511296,1.1281659 C75.9885791,1.1281659 75.3918006,1.72543021 75.3918006,2.48860126 C75.3918006,3.28495366 75.9885791,3.88221796 76.7511296,3.88221796 Z M75.789653,8.46124428 L75.789653,23.7246653 C75.789653,24.0232975 75.9885791,24.2223856 76.2869684,24.2223856 L77.2815994,24.2223856 C77.5799887,24.2223856 77.7789149,24.0232975 77.7789149,23.7246653 L77.7789149,8.46124428 C77.7789149,8.16261213 77.5799887,7.96352403 77.2815994,7.96352403 L76.2869684,7.96352403 C75.9885791,7.96352403 75.789653,8.16261213 75.789653,8.46124428 Z M88.8193188,24.6537431 C84.1777076,24.6537431 80.6301904,20.9374319 80.6301904,16.1261362 C80.6301904,11.3148404 84.1777076,7.59852918 88.8193188,7.59852918 C93.4609301,7.59852918 96.9752929,11.3148404 96.9752929,16.1261362 C96.9752929,20.9374319 93.4609301,24.6537431 88.8193188,24.6537431 Z M88.8193188,22.8619502 C92.3336816,22.8619502 95.085494,20.0415355 95.085494,16.1261362 C95.085494,12.2107368 92.3336816,9.39032208 88.8193188,9.39032208 C85.2718017,9.39032208 82.5531436,12.2107368 82.5531436,16.1261362 C82.5531436,20.0415355 85.2718017,22.8619502 88.8193188,22.8619502 Z" id="rapid.io" data-reactid="8"/></g></svg></svg>